<?xml version="1.0" encoding="UTF-8"?>

<svg xmlns="http://www.w3.org/2000/svg" version="1.1" width="200px" height="200px"
     style="shape-rendering:geometricPrecision; text-rendering:geometricPrecision; image-rendering:optimizeQuality; fill-rule:evenodd; clip-rule:evenodd"
>
  <g>
    <path style="opacity:0.424" fill="#101f42"
          d="M 122.5,57.5 C 121.305,57.3225 120.138,56.9891 119,56.5C 117.97,56.8361 117.47,57.5028 117.5,58.5C 115.767,57.9924 115.434,57.159 116.5,56C 118.989,55.0589 120.989,55.5589 122.5,57.5 Z"/>
  </g>
  <g>
    <path style="opacity:0.953" fill="#152646"
          d="M 117.5,58.5 C 120.135,59.4735 122.135,61.1402 123.5,63.5C 120.911,62.5806 118.911,60.914 117.5,58.5 Z"/>
  </g>
  <g>
    <path style="opacity:1" fill="#19294c"
          d="M 80.5,59.5 C 79.8333,60.8333 78.8333,61.8333 77.5,62.5C 76.713,60.8958 75.3797,60.2291 73.5,60.5C 75.3104,56.6892 78.3104,55.0225 82.5,55.5C 82.7709,57.3797 82.1042,58.713 80.5,59.5 Z"/>
  </g>
  <g>
    <path style="opacity:1" fill="#1c3060"
          d="M 80.5,59.5 C 77.0429,59.3328 76.7096,58.3328 79.5,56.5C 80.3857,57.325 80.719,58.325 80.5,59.5 Z"/>
  </g>
  <g>
    <path style="opacity:0.945" fill="#122242"
          d="M 90.5,65.5 C 90.1667,65.5 89.8333,65.5 89.5,65.5C 89.1667,64.5 88.5,63.8333 87.5,63.5C 86.7377,61.7376 85.4044,60.7376 83.5,60.5C 83.7828,59.7109 84.2828,59.0442 85,58.5C 87.4536,60.4412 89.287,62.7746 90.5,65.5 Z"/>
  </g>
  <g>
    <path style="opacity:0.973" fill="#192845"
          d="M 118.5,63.5 C 117.833,63.5 117.167,63.5 116.5,63.5C 115.738,61.7376 114.404,60.7376 112.5,60.5C 112.783,59.7109 113.283,59.0442 114,58.5C 115.707,60.0375 117.207,61.7041 118.5,63.5 Z"/>
  </g>
  <g>
    <path style="opacity:0.957" fill="#132654"
          d="M 122.5,57.5 C 124.5,58.8333 126.167,60.5 127.5,62.5C 127.721,63.7348 128.388,64.7348 129.5,65.5C 129.167,65.8333 128.833,66.1667 128.5,66.5C 127.06,65.0476 125.394,64.0476 123.5,63.5C 122.135,61.1402 120.135,59.4735 117.5,58.5C 117.47,57.5028 117.97,56.8361 119,56.5C 120.138,56.9891 121.305,57.3225 122.5,57.5 Z"/>
  </g>
  <g>
    <path style="opacity:0.745" fill="#0d1e3e"
          d="M 112.5,60.5 C 111.925,62.4113 110.925,64.078 109.5,65.5C 109.167,65.5 108.833,65.5 108.5,65.5C 109.08,63.2512 110.413,61.5846 112.5,60.5 Z"/>
  </g>
  <g>
    <path style="opacity:1" fill="#1a2e60"
          d="M 83.5,60.5 C 85.4044,60.7376 86.7377,61.7376 87.5,63.5C 86.5326,64.8062 85.1993,65.4729 83.5,65.5C 83.5,63.8333 83.5,62.1667 83.5,60.5 Z"/>
  </g>
  <g>
    <path style="opacity:1" fill="#172b52"
          d="M 73.5,60.5 C 75.3797,60.2291 76.713,60.8958 77.5,62.5C 74.8587,64.8044 72.192,67.1377 69.5,69.5C 68.1667,69.5 66.8333,69.5 65.5,69.5C 65.8238,72.6802 64.4904,73.8469 61.5,73C 63.4386,72.0922 64.4386,70.5922 64.5,68.5C 66.8797,65.1195 69.8797,62.4528 73.5,60.5 Z"/>
  </g>
  <g>
    <path style="opacity:1" fill="#18315d"
          d="M 112.5,60.5 C 114.404,60.7376 115.738,61.7376 116.5,63.5C 115.761,63.369 115.094,63.5357 114.5,64C 118.082,64.5954 118.416,65.9288 115.5,68C 116.252,68.6708 116.586,69.5041 116.5,70.5C 114.859,69.853 113.526,68.853 112.5,67.5C 111.5,66.8333 110.5,66.1667 109.5,65.5C 110.925,64.078 111.925,62.4113 112.5,60.5 Z"/>
  </g>
  <g>
    <path style="opacity:0.016" fill="#0c1d3c"
          d="M 119.5,64.5 C 121.027,64.427 122.027,65.0937 122.5,66.5C 120.973,66.573 119.973,65.9063 119.5,64.5 Z"/>
  </g>
  <g>
    <path style="opacity:1" fill="#183060"
          d="M 79.5,65.5 C 81.5,66.1667 82.8333,67.5 83.5,69.5C 83.5,70.1667 83.5,70.8333 83.5,71.5C 83.5,72.1667 83.5,72.8333 83.5,73.5C 82.8333,73.5 82.5,73.8333 82.5,74.5C 80.5096,74.0069 80.5096,72.8402 82.5,71C 81.1821,69.3702 79.8488,69.2035 78.5,70.5C 77.1667,70.8333 75.8333,71.1667 74.5,71.5C 75.7007,69.0905 77.3674,67.0905 79.5,65.5 Z"/>
  </g>
  <g>
    <path style="opacity:1" fill="#19305b"
          d="M 116.5,63.5 C 117.167,63.5 117.833,63.5 118.5,63.5C 119.167,63.5 119.5,63.8333 119.5,64.5C 119.973,65.9063 120.973,66.573 122.5,66.5C 122.5,67.1667 122.5,67.8333 122.5,68.5C 121.957,68.56 121.624,68.8933 121.5,69.5C 122.172,71.1595 123.172,72.4928 124.5,73.5C 121.95,73.4392 120.45,72.1059 120,69.5C 118.372,70.9617 118.205,72.6283 119.5,74.5C 118.143,73.4097 117.143,72.0764 116.5,70.5C 116.586,69.5041 116.252,68.6708 115.5,68C 118.416,65.9288 118.082,64.5954 114.5,64C 115.094,63.5357 115.761,63.369 116.5,63.5 Z"/>
  </g>
  <g>
    <path style="opacity:1" fill="#19305a"
          d="M 83.5,60.5 C 83.5,62.1667 83.5,63.8333 83.5,65.5C 85.1993,65.4729 86.5326,64.8062 87.5,63.5C 88.5,63.8333 89.1667,64.5 89.5,65.5C 88.8333,65.5 88.5,65.8333 88.5,66.5C 86.7673,67.0076 86.434,67.841 87.5,69C 86.2068,69.49 84.8734,69.6567 83.5,69.5C 82.8333,67.5 81.5,66.1667 79.5,65.5C 79.5,65.1667 79.5,64.8333 79.5,64.5C 80.5,62.8333 81.8333,61.5 83.5,60.5 Z"/>
  </g>
  <g>
    <path style="opacity:0.976" fill="#16294d"
          d="M 127.5,62.5 C 130.764,64.0941 133.431,66.4275 135.5,69.5C 134.5,69.5 133.5,69.5 132.5,69.5C 132.5,70.5 132.5,71.5 132.5,72.5C 129.167,69.8333 126.167,66.8333 123.5,63.5C 125.394,64.0476 127.06,65.0476 128.5,66.5C 128.833,66.1667 129.167,65.8333 129.5,65.5C 128.388,64.7348 127.721,63.7348 127.5,62.5 Z"/>
  </g>
  <g>
    <path style="opacity:0.922" fill="#142648"
          d="M 79.5,64.5 C 79.5,64.8333 79.5,65.1667 79.5,65.5C 77.3674,67.0905 75.7007,69.0905 74.5,71.5C 73.5,71.5 72.5,71.5 71.5,71.5C 73.5691,68.4275 76.2358,66.0941 79.5,64.5 Z"/>
  </g>
  <g>
    <path style="opacity:1" fill="#193062"
          d="M 88.5,66.5 C 92.2032,68.4919 91.8699,70.1586 87.5,71.5C 86.1667,72.8333 84.8333,72.8333 83.5,71.5C 83.5,70.8333 83.5,70.1667 83.5,69.5C 84.8734,69.6567 86.2068,69.49 87.5,69C 86.434,67.841 86.7673,67.0076 88.5,66.5 Z"/>
  </g>
  <g>
    <path style="opacity:1" fill="#16305c"
          d="M 108.5,65.5 C 108.833,65.5 109.167,65.5 109.5,65.5C 110.5,66.1667 111.5,66.8333 112.5,67.5C 112.517,69.5648 112.85,71.5648 113.5,73.5C 111.24,72.1144 110.406,72.7811 111,75.5C 112.652,76.3994 114.152,77.3994 115.5,78.5C 116.66,80.2027 115.993,80.8693 113.5,80.5C 111.833,79.8333 110.167,79.1667 108.5,78.5C 108.5,77.1667 107.833,76.5 106.5,76.5C 107.058,75.2101 108.058,74.3768 109.5,74C 109.794,72.3464 109.127,70.8464 107.5,69.5C 107.833,68.1667 108.167,66.8333 108.5,65.5 Z"/>
  </g>
  <g>
    <path style="opacity:1" fill="#152d5a"
          d="M 78.5,70.5 C 79.525,70.8966 79.6917,71.5632 79,72.5C 77.6976,73.0848 76.531,73.7515 75.5,74.5C 73.0274,74.9118 71.6941,73.9118 71.5,71.5C 72.5,71.5 73.5,71.5 74.5,71.5C 75.8333,71.1667 77.1667,70.8333 78.5,70.5 Z"/>
  </g>
  <g>
    <path style="opacity:1" fill="#192f5f"
          d="M 107.5,69.5 C 109.127,70.8464 109.794,72.3464 109.5,74C 108.058,74.3768 107.058,75.2101 106.5,76.5C 105.292,77.2341 103.959,77.5674 102.5,77.5C 102.232,75.901 102.566,74.5676 103.5,73.5C 104.967,75.8431 106.301,75.5097 107.5,72.5C 106.675,71.6143 105.675,71.281 104.5,71.5C 104.973,70.0937 105.973,69.427 107.5,69.5 Z"/>
  </g>
  <g>
    <path style="opacity:0.965" fill="#132446"
          d="M 122.5,66.5 C 125.5,68.8333 128.167,71.5 130.5,74.5C 127.276,73.2809 124.61,71.2809 122.5,68.5C 122.5,67.8333 122.5,67.1667 122.5,66.5 Z"/>
  </g>
  <g>
    <path style="opacity:1" fill="#172f66"
          d="M 104.5,71.5 C 105.675,71.281 106.675,71.6143 107.5,72.5C 106.301,75.5097 104.967,75.8431 103.5,73.5C 103.328,72.5084 103.662,71.8417 104.5,71.5 Z"/>
  </g>
  <g>
    <path style="opacity:1" fill="#172a4f"
          d="M 64.5,68.5 C 64.4386,70.5922 63.4386,72.0922 61.5,73C 64.4904,73.8469 65.8238,72.6802 65.5,69.5C 66.8333,69.5 68.1667,69.5 69.5,69.5C 64.8797,73.7834 60.213,78.1168 55.5,82.5C 53.0788,80.8244 52.9121,78.8244 55,76.5C 58.3325,73.9983 61.4992,71.3316 64.5,68.5 Z"/>
  </g>
  <g>
    <path style="opacity:1" fill="#182f5f"
          d="M 89.5,76.5 C 88.0772,74.4551 86.0772,73.4551 83.5,73.5C 83.5,72.8333 83.5,72.1667 83.5,71.5C 84.8333,72.8333 86.1667,72.8333 87.5,71.5C 88.6354,73.2132 90.302,73.8799 92.5,73.5C 92.6672,70.0429 93.6672,69.7096 95.5,72.5C 94.5036,75.3319 92.5036,76.6653 89.5,76.5 Z"/>
  </g>
  <g>
    <path style="opacity:1" fill="#152d50"
          d="M 124.5,73.5 C 127.217,74.6782 127.55,75.6782 125.5,76.5C 124.065,74.5989 122.398,74.2655 120.5,75.5C 120.5,74.8333 120.167,74.5 119.5,74.5C 118.205,72.6283 118.372,70.9617 120,69.5C 120.45,72.1059 121.95,73.4392 124.5,73.5 Z"/>
  </g>
  <g>
    <path style="opacity:0.69" fill="#152440"
          d="M 132.5,72.5 C 134.027,72.427 135.027,73.0937 135.5,74.5C 133.973,74.573 132.973,73.9063 132.5,72.5 Z"/>
  </g>
  <g>
    <path style="opacity:1" fill="#19325c"
          d="M 83.5,73.5 C 86.0772,73.4551 88.0772,74.4551 89.5,76.5C 89.0269,77.9063 88.0269,78.573 86.5,78.5C 84.2273,78.0432 82.894,76.7099 82.5,74.5C 82.5,73.8333 82.8333,73.5 83.5,73.5 Z"/>
  </g>
  <g>
    <path style="opacity:1" fill="#192a4c"
          d="M 108.5,65.5 C 108.167,66.8333 107.833,68.1667 107.5,69.5C 105.973,69.427 104.973,70.0937 104.5,71.5C 103.662,71.8417 103.328,72.5084 103.5,73.5C 102.566,74.5676 102.232,75.901 102.5,77.5C 103.959,77.5674 105.292,77.2341 106.5,76.5C 107.833,76.5 108.5,77.1667 108.5,78.5C 103.974,80.773 101.307,79.4396 100.5,74.5C 102.445,70.887 105.111,67.887 108.5,65.5 Z"/>
  </g>
  <g>
    <path style="opacity:0.996" fill="#12274b"
          d="M 71.5,71.5 C 71.6941,73.9118 73.0274,74.9118 75.5,74.5C 74.0582,75.8195 73.3915,77.4862 73.5,79.5C 72.5028,79.5299 71.8361,79.0299 71.5,78C 72.2913,76.899 72.2913,76.0656 71.5,75.5C 69.1987,76.3249 66.8654,76.9916 64.5,77.5C 66.8082,75.5293 69.1415,73.5293 71.5,71.5 Z"/>
  </g>
  <g>
    <path style="opacity:1" fill="#1a2e57"
          d="M 78.5,70.5 C 79.8488,69.2035 81.1821,69.3702 82.5,71C 80.5096,72.8402 80.5096,74.0069 82.5,74.5C 82.894,76.7099 84.2273,78.0432 86.5,78.5C 86.5,78.8333 86.5,79.1667 86.5,79.5C 85.205,80.4884 83.8717,81.4884 82.5,82.5C 81.4168,82.5394 80.4168,82.8728 79.5,83.5C 78.7025,83.0431 78.3691,82.3764 78.5,81.5C 81.1861,77.8532 80.1861,75.5199 75.5,74.5C 76.531,73.7515 77.6976,73.0848 79,72.5C 79.6917,71.5632 79.525,70.8966 78.5,70.5 Z"/>
  </g>
  <g>
    <path style="opacity:1" fill="#192e54"
          d="M 88.5,66.5 C 88.5,65.8333 88.8333,65.5 89.5,65.5C 89.8333,65.5 90.1667,65.5 90.5,65.5C 102.099,74.4621 100.766,79.1287 86.5,79.5C 86.5,79.1667 86.5,78.8333 86.5,78.5C 88.0269,78.573 89.0269,77.9063 89.5,76.5C 92.5036,76.6653 94.5036,75.3319 95.5,72.5C 93.6672,69.7096 92.6672,70.0429 92.5,73.5C 90.302,73.8799 88.6354,73.2132 87.5,71.5C 91.8699,70.1586 92.2032,68.4919 88.5,66.5 Z"/>
  </g>
  <g>
    <path style="opacity:1" fill="#182d61"
          d="M 112.5,67.5 C 113.526,68.853 114.859,69.853 116.5,70.5C 117.143,72.0764 118.143,73.4097 119.5,74.5C 120.167,74.5 120.5,74.8333 120.5,75.5C 119.833,75.8333 119.167,76.1667 118.5,76.5C 116.336,76.2785 114.67,75.2785 113.5,73.5C 112.85,71.5648 112.517,69.5648 112.5,67.5 Z"/>
  </g>
  <g>
    <path style="opacity:1" fill="#162a52"
          d="M 135.5,69.5 C 138.207,71.8432 140.874,74.1765 143.5,76.5C 142.417,76.4606 141.417,76.1272 140.5,75.5C 139.818,76.2427 139.151,76.9094 138.5,77.5C 137.167,76.8333 136.167,75.8333 135.5,74.5C 135.027,73.0937 134.027,72.427 132.5,72.5C 132.5,71.5 132.5,70.5 132.5,69.5C 133.5,69.5 134.5,69.5 135.5,69.5 Z"/>
  </g>
  <g>
    <path style="opacity:1" fill="#18325b"
          d="M 113.5,73.5 C 114.67,75.2785 116.336,76.2785 118.5,76.5C 118.5,76.8333 118.5,77.1667 118.5,77.5C 117.391,77.5569 116.391,77.8902 115.5,78.5C 114.152,77.3994 112.652,76.3994 111,75.5C 110.406,72.7811 111.24,72.1144 113.5,73.5 Z"/>
  </g>
  <g>
    <path style="opacity:1" fill="#172e5c"
          d="M 122.5,68.5 C 124.61,71.2809 127.276,73.2809 130.5,74.5C 130.229,76.3797 130.896,77.713 132.5,78.5C 130.361,79.1581 128.361,80.1581 126.5,81.5C 126.768,79.901 126.434,78.5676 125.5,77.5C 125.5,77.1667 125.5,76.8333 125.5,76.5C 127.55,75.6782 127.217,74.6782 124.5,73.5C 123.172,72.4928 122.172,71.1595 121.5,69.5C 121.624,68.8933 121.957,68.56 122.5,68.5 Z"/>
  </g>
  <g>
    <path style="opacity:1" fill="#183060"
          d="M 73.5,79.5 C 73.5,80.8333 73.5,82.1667 73.5,83.5C 76.0336,83.2591 77.7002,84.2591 78.5,86.5C 78.5,87.1667 78.1667,87.5 77.5,87.5C 75.8561,87.7135 74.3561,87.3802 73,86.5C 72.2828,87.0442 71.7828,87.7109 71.5,88.5C 71.6716,89.4916 71.3382,90.1583 70.5,90.5C 70.6567,89.1266 70.49,87.7932 70,86.5C 69.6174,87.056 69.1174,87.3893 68.5,87.5C 68.9361,85.2537 69.6028,83.0871 70.5,81C 67.412,80.4121 65.7453,81.7455 65.5,85C 65.6842,86.3756 66.3509,87.2089 67.5,87.5C 67.6495,88.552 67.4828,89.552 67,90.5C 65.871,88.8588 64.371,87.8588 62.5,87.5C 61.8629,84.0482 62.5296,80.7149 64.5,77.5C 66.8654,76.9916 69.1987,76.3249 71.5,75.5C 72.2913,76.0656 72.2913,76.899 71.5,78C 71.8361,79.0299 72.5028,79.5299 73.5,79.5 Z"/>
  </g>
  <g>
    <path style="opacity:1" fill="#192f61"
          d="M 132.5,78.5 C 132.833,78.5 133.167,78.5 133.5,78.5C 133.279,80.6636 132.279,82.3303 130.5,83.5C 129.115,84.5736 127.949,85.9069 127,87.5C 124.521,85.9116 124.021,83.9116 125.5,81.5C 125.833,81.5 126.167,81.5 126.5,81.5C 128.361,80.1581 130.361,79.1581 132.5,78.5 Z"/>
  </g>
  <g>
    <path style="opacity:1" fill="#17325b"
          d="M 133.5,78.5 C 135.207,79.8726 136.54,81.5393 137.5,83.5C 135.799,84.2114 134.799,85.5447 134.5,87.5C 130.509,88.128 129.176,86.7947 130.5,83.5C 132.279,82.3303 133.279,80.6636 133.5,78.5 Z"/>
  </g>
  <g>
    <path style="opacity:0.945" fill="#182847"
          d="M 143.5,76.5 C 145.975,78.5578 145.975,80.5578 143.5,82.5C 141.479,81.1455 139.812,79.4788 138.5,77.5C 139.151,76.9094 139.818,76.2427 140.5,75.5C 141.417,76.1272 142.417,76.4606 143.5,76.5 Z"/>
  </g>
  <g>
    <path style="opacity:1" fill="#192c5f"
          d="M 141.5,77.5 C 143.337,77.6395 143.67,78.3061 142.5,79.5C 141.702,79.0431 141.369,78.3764 141.5,77.5 Z"/>
  </g>
  <g>
    <path style="opacity:1" fill="#193158"
          d="M 68.5,87.5 C 68.1667,87.5 67.8333,87.5 67.5,87.5C 66.3509,87.2089 65.6842,86.3756 65.5,85C 65.7453,81.7455 67.412,80.4121 70.5,81C 69.6028,83.0871 68.9361,85.2537 68.5,87.5 Z"/>
  </g>
  <g>
    <path style="opacity:1" fill="#162849"
          d="M 125.5,77.5 C 126.434,78.5676 126.768,79.901 126.5,81.5C 126.167,81.5 125.833,81.5 125.5,81.5C 124.833,81.5 124.167,81.5 123.5,81.5C 124.6,80.3951 125.267,79.0618 125.5,77.5 Z"/>
  </g>
  <g>
    <path style="opacity:1" fill="#16294e"
          d="M 73.5,79.5 C 74.8195,80.9418 76.4862,81.6085 78.5,81.5C 78.3691,82.3764 78.7025,83.0431 79.5,83.5C 80.4168,82.8728 81.4168,82.5394 82.5,82.5C 81.5,84.1667 80.1667,85.5 78.5,86.5C 77.7002,84.2591 76.0336,83.2591 73.5,83.5C 73.5,82.1667 73.5,80.8333 73.5,79.5 Z"/>
  </g>
  <g>
    <path style="opacity:0.973" fill="#182b50"
          d="M 118.5,77.5 C 118.967,80.2974 120.633,81.6308 123.5,81.5C 122.571,82.3149 121.571,83.1482 120.5,84C 122.155,85.4443 122.822,87.2776 122.5,89.5C 119.833,86.1667 116.833,83.1667 113.5,80.5C 115.993,80.8693 116.66,80.2027 115.5,78.5C 116.391,77.8902 117.391,77.5569 118.5,77.5 Z"/>
  </g>
  <g>
    <path style="opacity:1" fill="#192a4c"
          d="M 130.5,74.5 C 134.924,77.4184 138.924,80.9184 142.5,85C 141.627,86.045 140.627,86.8783 139.5,87.5C 139.843,85.5168 139.176,84.1834 137.5,83.5C 136.54,81.5393 135.207,79.8726 133.5,78.5C 133.167,78.5 132.833,78.5 132.5,78.5C 130.896,77.713 130.229,76.3797 130.5,74.5 Z"/>
  </g>
  <g>
    <path style="opacity:1" fill="#1d2c4c"
          d="M 59.5,82.5 C 59.5,84.1667 59.5,85.8333 59.5,87.5C 55.5,85.8333 55.5,84.1667 59.5,82.5 Z"/>
  </g>
  <g>
    <path style="opacity:1" fill="#182948"
          d="M 115.5,85.5 C 115.158,86.3382 114.492,86.6716 113.5,86.5C 113.265,85.9033 112.765,85.5699 112,85.5C 110.022,86.9056 107.855,87.9056 105.5,88.5C 108.002,84.5759 111.336,83.5759 115.5,85.5 Z"/>
  </g>
  <g>
    <path style="opacity:1" fill="#18315f"
          d="M 123.5,81.5 C 124.167,81.5 124.833,81.5 125.5,81.5C 124.021,83.9116 124.521,85.9116 127,87.5C 127.949,85.9069 129.115,84.5736 130.5,83.5C 129.176,86.7947 130.509,88.128 134.5,87.5C 132.167,87.7045 130.167,89.0379 128.5,91.5C 127.238,88.9292 125.905,88.9292 124.5,91.5C 123.818,90.7573 123.151,90.0906 122.5,89.5C 122.822,87.2776 122.155,85.4443 120.5,84C 121.571,83.1482 122.571,82.3149 123.5,81.5 Z"/>
  </g>
  <g>
    <path style="opacity:1" fill="#1d2b4a"
          d="M 94.5,89.5 C 94.1667,89.5 93.8333,89.5 93.5,89.5C 92.5,88.8333 91.5,88.1667 90.5,87.5C 87.934,85.0361 85.434,85.3695 83,88.5C 82.5172,89.448 82.3505,90.448 82.5,91.5C 81.0869,85.102 83.7536,82.9353 90.5,85C 92.0414,86.3712 93.3747,87.8712 94.5,89.5 Z"/>
  </g>
  <g>
    <path style="opacity:1" fill="#192f60"
          d="M 137.5,83.5 C 139.176,84.1834 139.843,85.5168 139.5,87.5C 136.5,87.1667 135.167,88.5 135.5,91.5C 134.167,91.5 132.833,91.5 131.5,91.5C 131.306,95.0048 130.306,95.3382 128.5,92.5C 128.5,92.1667 128.5,91.8333 128.5,91.5C 130.167,89.0379 132.167,87.7045 134.5,87.5C 134.799,85.5447 135.799,84.2114 137.5,83.5 Z"/>
  </g>
  <g>
    <path style="opacity:1" fill="#1a2f59"
          d="M 64.5,77.5 C 62.5296,80.7149 61.8629,84.0482 62.5,87.5C 62.5,88.5 62.5,89.5 62.5,90.5C 61.1667,89.8333 60.1667,88.8333 59.5,87.5C 59.5,85.8333 59.5,84.1667 59.5,82.5C 60.8333,80.5 62.5,78.8333 64.5,77.5 Z"/>
  </g>
  <g>
    <path style="opacity:1" fill="#19325f"
          d="M 113.5,86.5 C 112.761,86.369 112.094,86.5357 111.5,87C 112.381,87.7083 113.047,88.5416 113.5,89.5C 112.325,89.281 111.325,89.6143 110.5,90.5C 110.358,92.6937 110.691,95.0271 111.5,97.5C 110.5,97.5 109.5,97.5 108.5,97.5C 108.144,95.8102 107.144,94.8102 105.5,94.5C 107.042,93.8592 108.376,92.8592 109.5,91.5C 108.246,91.4325 106.913,90.7658 105.5,89.5C 105.5,89.1667 105.5,88.8333 105.5,88.5C 107.855,87.9056 110.022,86.9056 112,85.5C 112.765,85.5699 113.265,85.9033 113.5,86.5 Z"/>
  </g>
  <g>
    <path style="opacity:1" fill="#152a4c"
          d="M 139.5,87.5 C 138.5,89.1667 137.167,90.5 135.5,91.5C 135.167,88.5 136.5,87.1667 139.5,87.5 Z"/>
  </g>
  <g>
    <path style="opacity:1" fill="#1a3061"
          d="M 90.5,87.5 C 88.0274,87.0882 86.6941,88.0882 86.5,90.5C 86.5,91.1667 86.5,91.8333 86.5,92.5C 85.0413,92.5674 83.7079,92.2341 82.5,91.5C 82.3505,90.448 82.5172,89.448 83,88.5C 85.434,85.3695 87.934,85.0361 90.5,87.5 Z"/>
  </g>
  <g>
    <path style="opacity:1" fill="#19315c"
          d="M 90.5,87.5 C 91.5,88.1667 92.5,88.8333 93.5,89.5C 93.5,90.1667 93.5,90.8333 93.5,91.5C 91.7526,91.5926 89.9193,91.926 88,92.5C 87.7216,91.5842 87.2216,90.9175 86.5,90.5C 86.6941,88.0882 88.0274,87.0882 90.5,87.5 Z"/>
  </g>
  <g>
    <path style="opacity:1" fill="#192b5a"
          d="M 115.5,85.5 C 117.461,87.32 117.794,89.32 116.5,91.5C 115.222,91.2178 114.222,90.5511 113.5,89.5C 113.047,88.5416 112.381,87.7083 111.5,87C 112.094,86.5357 112.761,86.369 113.5,86.5C 114.492,86.6716 115.158,86.3382 115.5,85.5 Z"/>
  </g>
  <g>
    <path style="opacity:1" fill="#18315e"
          d="M 71.5,88.5 C 73.8551,90.9226 74.8551,93.9226 74.5,97.5C 71.3695,98.0922 69.0361,97.0922 67.5,94.5C 69.5914,93.4887 70.5914,92.1554 70.5,90.5C 71.3382,90.1583 71.6716,89.4916 71.5,88.5 Z"/>
  </g>
  <g>
    <path style="opacity:0.78" fill="#1a294b"
          d="M 105.5,88.5 C 105.5,88.8333 105.5,89.1667 105.5,89.5C 104.752,91.3325 103.752,92.9991 102.5,94.5C 101.833,94.5 101.167,94.5 100.5,94.5C 102.177,92.4602 103.844,90.4602 105.5,88.5 Z"/>
  </g>
  <g>
    <path style="opacity:1" fill="#182a4c"
          d="M 62.5,90.5 C 65.4,90.4078 67.0667,91.7411 67.5,94.5C 69.0361,97.0922 71.3695,98.0922 74.5,97.5C 74.5,97.8333 74.5,98.1667 74.5,98.5C 72.9317,99.4731 71.265,99.6397 69.5,99C 66.8001,96.4119 64.4668,93.5786 62.5,90.5 Z"/>
  </g>
  <g>
    <path style="opacity:1" fill="#182e61"
          d="M 70.5,90.5 C 70.5914,92.1554 69.5914,93.4887 67.5,94.5C 67.0667,91.7411 65.4,90.4078 62.5,90.5C 62.5,89.5 62.5,88.5 62.5,87.5C 64.371,87.8588 65.871,88.8588 67,90.5C 67.4828,89.552 67.6495,88.552 67.5,87.5C 67.8333,87.5 68.1667,87.5 68.5,87.5C 69.1174,87.3893 69.6174,87.056 70,86.5C 70.49,87.7932 70.6567,89.1266 70.5,90.5 Z"/>
  </g>
  <g>
    <path style="opacity:0.561" fill="#15233e"
          d="M 52.5,92.5 C 51.391,92.5569 50.391,92.8902 49.5,93.5C 49.9865,90.2855 50.9865,89.9522 52.5,92.5 Z"/>
  </g>
  <g>
    <path style="opacity:1" fill="#182c4e"
          d="M 122.5,89.5 C 123.151,90.0906 123.818,90.7573 124.5,91.5C 125.905,88.9292 127.238,88.9292 128.5,91.5C 128.5,91.8333 128.5,92.1667 128.5,92.5C 127.292,93.2341 125.959,93.5674 124.5,93.5C 124.263,94.791 124.596,95.791 125.5,96.5C 125.842,97.3382 126.508,97.6716 127.5,97.5C 128.5,97.5 129.5,97.5 130.5,97.5C 128.507,99.9579 126.174,100.125 123.5,98C 123.588,95.2114 123.254,92.378 122.5,89.5 Z"/>
  </g>
  <g>
    <path style="opacity:1" fill="#192e56"
          d="M 113.5,89.5 C 114.222,90.5511 115.222,91.2178 116.5,91.5C 115.581,94.0892 113.914,96.0892 111.5,97.5C 110.691,95.0271 110.358,92.6937 110.5,90.5C 111.325,89.6143 112.325,89.281 113.5,89.5 Z"/>
  </g>
  <g>
    <path style="opacity:1" fill="#1c2e50"
          d="M 82.5,91.5 C 83.7079,92.2341 85.0413,92.5674 86.5,92.5C 86.9752,94.7837 87.9752,96.7837 89.5,98.5C 89.5,98.8333 89.5,99.1667 89.5,99.5C 86.4275,97.4309 84.0941,94.7642 82.5,91.5 Z"/>
  </g>
  <g>
    <path style="opacity:1" fill="#183054"
          d="M 93.5,89.5 C 93.8333,89.5 94.1667,89.5 94.5,89.5C 95.8851,91.8835 97.8851,93.5501 100.5,94.5C 99.657,95.9833 98.657,97.65 97.5,99.5C 96.5,99.5 95.5,99.5 94.5,99.5C 93.6618,99.1583 93.3284,98.4916 93.5,97.5C 93.9175,96.7784 94.5842,96.2784 95.5,96C 93.9632,94.8904 93.2965,93.3904 93.5,91.5C 93.5,90.8333 93.5,90.1667 93.5,89.5 Z"/>
  </g>
  <g>
    <path style="opacity:1" fill="#192f5a"
          d="M 135.5,91.5 C 133.823,93.5398 132.156,95.5398 130.5,97.5C 129.5,97.5 128.5,97.5 127.5,97.5C 128.598,96.603 128.598,95.7697 127.5,95C 126.184,94.4719 125.517,94.9719 125.5,96.5C 124.596,95.791 124.263,94.791 124.5,93.5C 125.959,93.5674 127.292,93.2341 128.5,92.5C 130.306,95.3382 131.306,95.0048 131.5,91.5C 132.833,91.5 134.167,91.5 135.5,91.5 Z"/>
  </g>
  <g>
    <path style="opacity:0.965" fill="#102243"
          d="M 149.5,94.5 C 148.395,95.6005 147.062,96.2671 145.5,96.5C 145.848,94.2872 146.681,92.2872 148,90.5C 149.188,91.5634 149.688,92.8967 149.5,94.5 Z"/>
  </g>
  <g>
    <path style="opacity:1" fill="#1a2b4f"
          d="M 77.5,87.5 C 77.0388,89.5504 76.3721,91.5504 75.5,93.5C 77.0093,95.62 76.676,97.2867 74.5,98.5C 74.5,98.1667 74.5,97.8333 74.5,97.5C 74.8551,93.9226 73.8551,90.9226 71.5,88.5C 71.7828,87.7109 72.2828,87.0442 73,86.5C 74.3561,87.3802 75.8561,87.7135 77.5,87.5 Z"/>
  </g>
  <g>
    <path style="opacity:1" fill="#193060"
          d="M 86.5,90.5 C 87.2216,90.9175 87.7216,91.5842 88,92.5C 89.9193,91.926 91.7526,91.5926 93.5,91.5C 93.2965,93.3904 93.9632,94.8904 95.5,96C 94.5842,96.2784 93.9175,96.7784 93.5,97.5C 92.7784,97.9175 92.2784,98.5842 92,99.5C 91.3292,98.7476 90.4959,98.4142 89.5,98.5C 87.9752,96.7837 86.9752,94.7837 86.5,92.5C 86.5,91.8333 86.5,91.1667 86.5,90.5 Z"/>
  </g>
  <g>
    <path style="opacity:1" fill="#142e65"
          d="M 127.5,97.5 C 126.508,97.6716 125.842,97.3382 125.5,96.5C 125.517,94.9719 126.184,94.4719 127.5,95C 128.598,95.7697 128.598,96.603 127.5,97.5 Z"/>
  </g>
  <g>
    <path style="opacity:0.965" fill="#172747"
          d="M 49.5,93.5 C 49.553,96.4689 49.8863,99.4689 50.5,102.5C 49.8826,102.389 49.3826,102.056 49,101.5C 48.1993,98.633 48.3659,95.9664 49.5,93.5 Z"/>
  </g>
  <g>
    <path style="opacity:1" fill="#1a2f5f"
          d="M 100.5,94.5 C 101.167,94.5 101.833,94.5 102.5,94.5C 103.376,94.3691 104.043,94.7025 104.5,95.5C 103.873,96.4168 103.539,97.4168 103.5,98.5C 102.833,98.5 102.5,98.8333 102.5,99.5C 100.833,99.5 99.1667,99.5 97.5,99.5C 98.657,97.65 99.657,95.9833 100.5,94.5 Z"/>
  </g>
  <g>
    <path style="opacity:1" fill="#16305e"
          d="M 105.5,89.5 C 106.913,90.7658 108.246,91.4325 109.5,91.5C 108.376,92.8592 107.042,93.8592 105.5,94.5C 105.771,96.3797 105.104,97.713 103.5,98.5C 103.539,97.4168 103.873,96.4168 104.5,95.5C 104.043,94.7025 103.376,94.3691 102.5,94.5C 103.752,92.9991 104.752,91.3325 105.5,89.5 Z"/>
  </g>
  <g>
    <path style="opacity:0.969" fill="#16284c"
          d="M 149.5,94.5 C 150.833,96.8333 150.833,99.1667 149.5,101.5C 149.5,100.167 149.5,98.8333 149.5,97.5C 148.5,97.5 147.5,97.5 146.5,97.5C 146.5,98.8333 146.5,100.167 146.5,101.5C 146.167,101.5 145.833,101.5 145.5,101.5C 144.167,99.8333 144.167,98.1667 145.5,96.5C 147.062,96.2671 148.395,95.6005 149.5,94.5 Z"/>
  </g>
  <g>
    <path style="opacity:1" fill="#17325b"
          d="M 105.5,94.5 C 107.144,94.8102 108.144,95.8102 108.5,97.5C 105.708,97.9103 104.708,99.2436 105.5,101.5C 104.325,101.281 103.325,101.614 102.5,102.5C 102.185,104.483 101.185,105.816 99.5,106.5C 98.5084,106.672 97.8417,106.338 97.5,105.5C 97.3505,104.448 97.5172,103.448 98,102.5C 99.6516,101.601 101.152,100.601 102.5,99.5C 102.5,98.8333 102.833,98.5 103.5,98.5C 105.104,97.713 105.771,96.3797 105.5,94.5 Z"/>
  </g>
  <g>
    <path style="opacity:0.953" fill="#112458"
          d="M 149.5,101.5 C 148.5,101.5 147.5,101.5 146.5,101.5C 146.5,100.167 146.5,98.8333 146.5,97.5C 147.5,97.5 148.5,97.5 149.5,97.5C 149.5,98.8333 149.5,100.167 149.5,101.5 Z"/>
  </g>
  <g>
    <path style="opacity:0.976" fill="#162b53"
          d="M 52.5,92.5 C 53.3004,94.6073 53.9671,96.7739 54.5,99C 54.472,100.07 54.1386,100.903 53.5,101.5C 52.391,101.557 51.391,101.89 50.5,102.5C 49.8863,99.4689 49.553,96.4689 49.5,93.5C 50.391,92.8902 51.391,92.5569 52.5,92.5 Z"/>
  </g>
  <g>
    <path style="opacity:1" fill="#1a2a53"
          d="M 93.5,97.5 C 93.3284,98.4916 93.6618,99.1583 94.5,99.5C 93.5114,102.249 94.5114,104.249 97.5,105.5C 97.8417,106.338 98.5084,106.672 99.5,106.5C 99.7619,108.564 100.929,109.897 103,110.5C 103.483,111.448 103.649,112.448 103.5,113.5C 98.5,109.167 93.8333,104.5 89.5,99.5C 89.5,99.1667 89.5,98.8333 89.5,98.5C 90.4959,98.4142 91.3292,98.7476 92,99.5C 92.2784,98.5842 92.7784,97.9175 93.5,97.5 Z"/>
  </g>
  <g>
    <path style="opacity:1" fill="#173060"
          d="M 94.5,99.5 C 95.5,99.5 96.5,99.5 97.5,99.5C 99.1667,99.5 100.833,99.5 102.5,99.5C 101.152,100.601 99.6516,101.601 98,102.5C 97.5172,103.448 97.3505,104.448 97.5,105.5C 94.5114,104.249 93.5114,102.249 94.5,99.5 Z"/>
  </g>
  <g>
    <path style="opacity:1" fill="#182a50"
          d="M 108.5,97.5 C 109.5,97.5 110.5,97.5 111.5,97.5C 110.04,99.4628 108.373,101.296 106.5,103C 107.823,103.816 108.489,104.983 108.5,106.5C 106.273,105.599 105.273,103.933 105.5,101.5C 104.708,99.2436 105.708,97.9103 108.5,97.5 Z"/>
  </g>
  <g>
    <path style="opacity:0.69" fill="#132240"
          d="M 58.5,108.5 C 58.1667,108.5 57.8333,108.5 57.5,108.5C 57.6621,106.473 57.4955,104.473 57,102.5C 56.3292,103.252 55.4959,103.586 54.5,103.5C 55.3149,102.163 56.4815,101.163 58,100.5C 58.4974,103.146 58.6641,105.813 58.5,108.5 Z"/>
  </g>
  <g>
    <path style="opacity:1" fill="#18305f"
          d="M 105.5,101.5 C 105.273,103.933 106.273,105.599 108.5,106.5C 108.5,107.167 108.5,107.833 108.5,108.5C 107.508,108.328 106.842,108.662 106.5,109.5C 106.201,111.455 105.201,112.789 103.5,113.5C 103.649,112.448 103.483,111.448 103,110.5C 100.929,109.897 99.7619,108.564 99.5,106.5C 101.185,105.816 102.185,104.483 102.5,102.5C 103.325,101.614 104.325,101.281 105.5,101.5 Z"/>
  </g>
  <g>
    <path style="opacity:0.475" fill="#162545"
          d="M 145.5,101.5 C 145.833,101.5 146.167,101.5 146.5,101.5C 147.5,101.5 148.5,101.5 149.5,101.5C 149.047,102.458 148.381,103.292 147.5,104C 149.134,104.494 150.801,104.66 152.5,104.5C 152.031,107.643 150.364,109.977 147.5,111.5C 147.472,109.418 148.139,107.584 149.5,106C 147.238,105.358 145.071,104.525 143,103.5C 142.148,104.571 141.315,105.571 140.5,106.5C 139.449,100.207 140.949,99.2073 145,103.5C 145.464,102.906 145.631,102.239 145.5,101.5 Z"/>
  </g>
  <g>
    <path style="opacity:0.961" fill="#122653"
          d="M 147.5,111.5 C 147.167,111.5 146.833,111.5 146.5,111.5C 145.329,110.655 143.995,109.989 142.5,109.5C 142.167,109.5 141.833,109.5 141.5,109.5C 141.5,108.833 141.167,108.5 140.5,108.5C 140.5,107.833 140.5,107.167 140.5,106.5C 141.315,105.571 142.148,104.571 143,103.5C 145.071,104.525 147.238,105.358 149.5,106C 148.139,107.584 147.472,109.418 147.5,111.5 Z"/>
  </g>
  <g>
    <path style="opacity:1" fill="#182746"
          d="M 53.5,101.5 C 53.5,102.167 53.5,102.833 53.5,103.5C 52.2209,104.968 50.5542,105.635 48.5,105.5C 48.5,106.5 48.5,107.5 48.5,108.5C 47.1634,107.685 46.1634,106.518 45.5,105C 47.5,104.667 49.5,104.333 51.5,104C 50.944,103.617 50.6107,103.117 50.5,102.5C 51.391,101.89 52.391,101.557 53.5,101.5 Z"/>
  </g>
  <g>
    <path style="opacity:1" fill="#152a57"
          d="M 57.5,108.5 C 55.8784,109.122 54.5451,110.122 53.5,111.5C 51.0672,111.727 49.4006,110.727 48.5,108.5C 48.5,107.5 48.5,106.5 48.5,105.5C 50.5542,105.635 52.2209,104.968 53.5,103.5C 53.8333,103.5 54.1667,103.5 54.5,103.5C 55.4959,103.586 56.3292,103.252 57,102.5C 57.4955,104.473 57.6621,106.473 57.5,108.5 Z"/>
  </g>
  <g>
    <path style="opacity:0.824" fill="#112242"
          d="M 62.5,115.5 C 62.1667,115.5 61.8333,115.5 61.5,115.5C 60.8333,115.5 60.5,115.167 60.5,114.5C 60.5,113.833 60.5,113.167 60.5,112.5C 60.6495,111.448 60.4828,110.448 60,109.5C 59.3292,110.252 58.4959,110.586 57.5,110.5C 57.5,110.167 57.5,109.833 57.5,109.5C 58.1667,109.5 58.5,109.167 58.5,108.5C 59.8235,107.15 60.8235,107.317 61.5,109C 62.2865,111.099 62.6199,113.266 62.5,115.5 Z"/>
  </g>
  <g>
    <path style="opacity:0.812" fill="#0d1f40"
          d="M 57.5,108.5 C 57.5,108.833 57.5,109.167 57.5,109.5C 56.1667,109.833 56.1667,110.167 57.5,110.5C 56.7095,111.401 55.7095,112.068 54.5,112.5C 54.5,111.833 54.1667,111.5 53.5,111.5C 54.5451,110.122 55.8784,109.122 57.5,108.5 Z"/>
  </g>
  <g>
    <path style="opacity:1" fill="#192e58"
          d="M 94.5,115.5 C 92.5588,115.131 90.7255,114.464 89,113.5C 88.5831,114.756 87.7498,115.423 86.5,115.5C 85.8761,115.083 85.5427,114.416 85.5,113.5C 86.1355,112.034 86.9688,110.7 88,109.5C 88.3333,109.833 88.6667,110.167 89,110.5C 89.4828,109.552 89.6495,108.552 89.5,107.5C 92.1024,106.031 94.269,106.698 96,109.5C 96.7484,111.84 96.2484,113.84 94.5,115.5 Z"/>
  </g>
  <g>
    <path style="opacity:1" fill="#15284a"
          d="M 108.5,106.5 C 112.107,110.065 116.274,111.065 121,109.5C 124.436,110.914 125.27,113.247 123.5,116.5C 123.167,116.5 122.833,116.5 122.5,116.5C 121.962,114.883 121.629,113.216 121.5,111.5C 120.5,111.5 119.5,111.5 118.5,111.5C 117.209,111.263 116.209,111.596 115.5,112.5C 114.167,112.5 112.833,112.5 111.5,112.5C 111.532,110.381 110.532,109.048 108.5,108.5C 108.5,107.833 108.5,107.167 108.5,106.5 Z"/>
  </g>
  <g>
    <path style="opacity:1" fill="#122349"
          d="M 83.5,110.5 C 83.5,111.167 83.5,111.833 83.5,112.5C 81.8561,112.714 80.3561,112.38 79,111.5C 78.3333,112.167 77.6667,112.833 77,113.5C 76.5017,116.817 76.335,120.15 76.5,123.5C 75.2206,119.7 74.7206,115.7 75,111.5C 77.5623,109.493 80.3956,109.159 83.5,110.5 Z"/>
  </g>
  <g>
    <path style="opacity:1" fill="#153056"
          d="M 106.5,109.5 C 108.976,111.609 108.976,113.943 106.5,116.5C 105.833,116.167 105.167,115.833 104.5,115.5C 103.662,115.158 103.328,114.492 103.5,113.5C 105.201,112.789 106.201,111.455 106.5,109.5 Z"/>
  </g>
  <g>
    <path style="opacity:1" fill="#15274b"
          d="M 140.5,108.5 C 141.167,108.5 141.5,108.833 141.5,109.5C 141.833,110.833 142.167,110.833 142.5,109.5C 143.995,109.989 145.329,110.655 146.5,111.5C 145.508,111.328 144.842,111.662 144.5,112.5C 143.209,112.263 142.209,112.596 141.5,113.5C 140.833,113.5 140.167,113.5 139.5,113.5C 138.5,113.833 137.833,114.5 137.5,115.5C 137.167,115.5 136.833,115.5 136.5,115.5C 136.28,112.6 136.946,109.933 138.5,107.5C 139.183,107.863 139.85,108.196 140.5,108.5 Z"/>
  </g>
  <g>
    <path style="opacity:1" fill="#152341"
          d="M 54.5,112.5 C 54.0472,113.458 53.3805,114.292 52.5,115C 53.2524,115.671 53.5858,116.504 53.5,117.5C 47.8421,114.504 48.1754,112.838 54.5,112.5 Z"/>
  </g>
  <g>
    <path style="opacity:1" fill="#162f5f"
          d="M 60.5,112.5 C 60.5,113.167 60.5,113.833 60.5,114.5C 59.2436,114.904 58.0769,115.571 57,116.5C 55.9412,116.37 55.1079,115.87 54.5,115C 56.6406,114.427 58.6406,113.594 60.5,112.5 Z"/>
  </g>
  <g>
    <path style="opacity:0.839" fill="#142342"
          d="M 65.5,115.5 C 64.8333,115.5 64.1667,115.5 63.5,115.5C 64.1667,112.833 64.8333,112.833 65.5,115.5 Z"/>
  </g>
  <g>
    <path style="opacity:0.973" fill="#14294f"
          d="M 89.5,107.5 C 89.6495,108.552 89.4828,109.552 89,110.5C 88.6667,110.167 88.3333,109.833 88,109.5C 86.9688,110.7 86.1355,112.034 85.5,113.5C 85.5427,114.416 85.8761,115.083 86.5,115.5C 86.5,115.833 86.5,116.167 86.5,116.5C 85.5041,116.586 84.6708,116.252 84,115.5C 82.9609,116.71 81.7942,117.71 80.5,118.5C 79.7611,118.631 79.0944,118.464 78.5,118C 79.1905,116.933 79.6905,115.766 80,114.5C 81.3204,114.201 82.8204,114.034 84.5,114C 83.944,113.617 83.6107,113.117 83.5,112.5C 83.5,111.833 83.5,111.167 83.5,110.5C 85.5,109.5 87.5,108.5 89.5,107.5 Z"/>
  </g>
  <g>
    <path style="opacity:1" fill="#172e58"
          d="M 94.5,115.5 C 93.8902,116.391 93.5569,117.391 93.5,118.5C 92.8333,119.833 92.1667,121.167 91.5,122.5C 90.9097,115.183 89.5764,114.85 87.5,121.5C 87.634,119.708 87.3007,118.042 86.5,116.5C 86.5,116.167 86.5,115.833 86.5,115.5C 87.7498,115.423 88.5831,114.756 89,113.5C 90.7255,114.464 92.5588,115.131 94.5,115.5 Z"/>
  </g>
  <g>
    <path style="opacity:1" fill="#18305e"
          d="M 106.5,109.5 C 106.842,108.662 107.508,108.328 108.5,108.5C 110.532,109.048 111.532,110.381 111.5,112.5C 112.833,112.5 114.167,112.5 115.5,112.5C 114.319,114.067 112.653,114.901 110.5,115C 111.252,115.671 111.586,116.504 111.5,117.5C 110.566,118.568 110.232,119.901 110.5,121.5C 109.842,120.602 109.176,119.602 108.5,118.5C 107.818,119.243 107.151,119.909 106.5,120.5C 106.5,119.167 106.5,117.833 106.5,116.5C 108.976,113.943 108.976,111.609 106.5,109.5 Z"/>
  </g>
  <g>
    <path style="opacity:1" fill="#1c3167"
          d="M 139.5,113.5 C 140.167,113.5 140.833,113.5 141.5,113.5C 145.361,114.459 145.361,115.459 141.5,116.5C 140.833,115.5 140.167,114.5 139.5,113.5 Z"/>
  </g>
  <g>
    <path style="opacity:0.929" fill="#0e2351"
          d="M 139.5,113.5 C 140.167,114.5 140.833,115.5 141.5,116.5C 140.883,116.611 140.383,116.944 140,117.5C 139.583,116.244 138.75,115.577 137.5,115.5C 137.833,114.5 138.5,113.833 139.5,113.5 Z"/>
  </g>
  <g>
    <path style="opacity:0.929" fill="#0e2351"
          d="M 144.5,112.5 C 146.857,115.555 145.857,117.222 141.5,117.5C 141.5,117.167 141.5,116.833 141.5,116.5C 145.361,115.459 145.361,114.459 141.5,113.5C 142.209,112.596 143.209,112.263 144.5,112.5 Z"/>
  </g>
  <g>
    <path style="opacity:0.933" fill="#0c2150"
          d="M 60.5,112.5 C 58.6406,113.594 56.6406,114.427 54.5,115C 55.1079,115.87 55.9412,116.37 57,116.5C 58.0769,115.571 59.2436,114.904 60.5,114.5C 60.5,115.167 60.8333,115.5 61.5,115.5C 61.5,115.833 61.5,116.167 61.5,116.5C 60.8333,116.5 60.5,116.833 60.5,117.5C 58.1667,117.5 55.8333,117.5 53.5,117.5C 53.5858,116.504 53.2524,115.671 52.5,115C 53.3805,114.292 54.0472,113.458 54.5,112.5C 55.7095,112.068 56.7095,111.401 57.5,110.5C 58.4959,110.586 59.3292,110.252 60,109.5C 60.4828,110.448 60.6495,111.448 60.5,112.5 Z"/>
  </g>
  <g>
    <path style="opacity:0.953" fill="#102455"
          d="M 62.5,115.5 C 62.8333,115.5 63.1667,115.5 63.5,115.5C 64.1667,115.5 64.8333,115.5 65.5,115.5C 65.5,116.167 65.5,116.833 65.5,117.5C 64.1667,118.5 62.8333,119.5 61.5,120.5C 60.8902,119.609 60.5569,118.609 60.5,117.5C 61.1667,117.5 61.5,117.167 61.5,116.5C 62.1667,116.5 62.5,116.167 62.5,115.5 Z"/>
  </g>
  <g>
    <path style="opacity:1" fill="#162b5c"
          d="M 83.5,112.5 C 83.6107,113.117 83.944,113.617 84.5,114C 82.8204,114.034 81.3204,114.201 80,114.5C 79.6905,115.766 79.1905,116.933 78.5,118C 79.0944,118.464 79.7611,118.631 80.5,118.5C 80.5,118.833 80.5,119.167 80.5,119.5C 79.6909,121.292 79.1909,123.292 79,125.5C 78.5831,124.244 77.7498,123.577 76.5,123.5C 76.335,120.15 76.5017,116.817 77,113.5C 77.6667,112.833 78.3333,112.167 79,111.5C 80.3561,112.38 81.8561,112.714 83.5,112.5 Z"/>
  </g>
  <g>
    <path style="opacity:1" fill="#142750"
          d="M 118.5,111.5 C 117.909,112.151 117.243,112.818 116.5,113.5C 120.028,114.877 121.028,117.211 119.5,120.5C 118.833,120.833 118.167,121.167 117.5,121.5C 118.596,118.988 117.762,116.988 115,115.5C 113.887,116.305 112.721,116.972 111.5,117.5C 111.586,116.504 111.252,115.671 110.5,115C 112.653,114.901 114.319,114.067 115.5,112.5C 116.209,111.596 117.209,111.263 118.5,111.5 Z"/>
  </g>
  <g>
    <path style="opacity:0.314" fill="#152442"
          d="M 144.5,112.5 C 146.429,112.231 148.095,112.731 149.5,114C 147.578,116.43 145.245,118.263 142.5,119.5C 142.5,118.833 142.167,118.5 141.5,118.5C 141.5,118.167 141.5,117.833 141.5,117.5C 145.857,117.222 146.857,115.555 144.5,112.5 Z"/>
  </g>
  <g>
    <path style="opacity:0.973" fill="#0f2457"
          d="M 137.5,117.5 C 137.5,118.5 137.5,119.5 137.5,120.5C 136.167,120.5 134.833,120.5 133.5,120.5C 133.5,119.5 133.5,118.5 133.5,117.5C 134.833,117.5 136.167,117.5 137.5,117.5 Z"/>
  </g>
  <g>
    <path style="opacity:1" fill="#152b59"
          d="M 118.5,111.5 C 119.5,111.5 120.5,111.5 121.5,111.5C 121.629,113.216 121.962,114.883 122.5,116.5C 122.167,119.167 121.833,121.833 121.5,124.5C 121.5,125.833 120.833,126.5 119.5,126.5C 120.742,124.389 120.742,122.389 119.5,120.5C 121.028,117.211 120.028,114.877 116.5,113.5C 117.243,112.818 117.909,112.151 118.5,111.5 Z"/>
  </g>
  <g>
    <path style="opacity:0.498" fill="#0f1f3f"
          d="M 104.5,115.5 C 105.167,115.833 105.833,116.167 106.5,116.5C 106.5,117.833 106.5,119.167 106.5,120.5C 106.205,122.735 106.539,124.735 107.5,126.5C 107.833,127.167 108.167,127.833 108.5,128.5C 106.983,128.489 105.816,127.823 105,126.5C 105.571,122.805 105.404,119.139 104.5,115.5 Z"/>
  </g>
  <g>
    <path style="opacity:1" fill="#12264b"
          d="M 53.5,117.5 C 55.8333,117.5 58.1667,117.5 60.5,117.5C 60.5569,118.609 60.8902,119.609 61.5,120.5C 61.1583,121.338 60.4916,121.672 59.5,121.5C 58.609,120.89 57.609,120.557 56.5,120.5C 55.6935,119.272 54.6935,118.272 53.5,117.5 Z"/>
  </g>
  <g>
    <path style="opacity:1" fill="#153158"
          d="M 65.5,117.5 C 64.6597,119.853 63.3264,121.853 61.5,123.5C 60.5,123.167 59.8333,122.5 59.5,121.5C 60.4916,121.672 61.1583,121.338 61.5,120.5C 62.8333,119.5 64.1667,118.5 65.5,117.5 Z"/>
  </g>
  <g>
    <path style="opacity:0.929" fill="#0f2147"
          d="M 137.5,116.5 C 137.5,116.167 137.5,115.833 137.5,115.5C 138.75,115.577 139.583,116.244 140,117.5C 140.383,116.944 140.883,116.611 141.5,116.5C 141.5,116.833 141.5,117.167 141.5,117.5C 141.5,117.833 141.5,118.167 141.5,118.5C 139.15,119.11 139.483,119.444 142.5,119.5C 145.167,120.833 145.167,122.167 142.5,123.5C 142.25,122.078 141.417,121.078 140,120.5C 139.023,121.774 138.189,121.774 137.5,120.5C 137.5,119.5 137.5,118.5 137.5,117.5C 138.833,117.167 138.833,116.833 137.5,116.5 Z"/>
  </g>
  <g>
    <path style="opacity:0.141" fill="#101d3b"
          d="M 56.5,120.5 C 56.1667,121.167 55.8333,121.833 55.5,122.5C 54.2426,121.377 54.5759,120.711 56.5,120.5 Z"/>
  </g>
  <g>
    <path style="opacity:0.992" fill="#162755"
          d="M 56.5,120.5 C 57.609,120.557 58.609,120.89 59.5,121.5C 59.8333,122.5 60.5,123.167 61.5,123.5C 62.0674,124.42 61.4008,124.754 59.5,124.5C 57.847,124.34 56.5137,123.674 55.5,122.5C 55.8333,121.833 56.1667,121.167 56.5,120.5 Z"/>
  </g>
  <g>
    <path style="opacity:0.942" fill="#0d2048"
          d="M 65.5,115.5 C 67.1511,117.402 67.4845,119.402 66.5,121.5C 64.8564,121.81 63.8564,122.81 63.5,124.5C 62.1667,125.833 60.8333,125.833 59.5,124.5C 61.4008,124.754 62.0674,124.42 61.5,123.5C 63.3264,121.853 64.6597,119.853 65.5,117.5C 65.5,116.833 65.5,116.167 65.5,115.5 Z"/>
  </g>
  <g>
    <path style="opacity:0.966" fill="#11244b"
          d="M 80.5,119.5 C 82.1433,122.495 84.4767,123.161 87.5,121.5C 87.6309,122.376 87.2975,123.043 86.5,123.5C 84.4648,124.041 82.4648,124.708 80.5,125.5C 83.1678,126.738 85.8345,126.738 88.5,125.5C 89.2975,125.957 89.6309,126.624 89.5,127.5C 86.8333,127.5 84.1667,127.5 81.5,127.5C 78.9368,127.269 77.2702,125.935 76.5,123.5C 77.7498,123.577 78.5831,124.244 79,125.5C 79.1909,123.292 79.6909,121.292 80.5,119.5 Z"/>
  </g>
  <g>
    <path style="opacity:0.875" fill="#121f3f"
          d="M 66.5,121.5 C 67.2026,123.716 68.5359,125.549 70.5,127C 70,127.5 69.5,128 69,128.5C 67.2258,127.035 65.3925,125.702 63.5,124.5C 63.8564,122.81 64.8564,121.81 66.5,121.5 Z"/>
  </g>
  <g>
    <path style="opacity:0.973" fill="#15295b"
          d="M 119.5,120.5 C 120.742,122.389 120.742,124.389 119.5,126.5C 117.571,126.769 115.905,126.269 114.5,125C 116.426,124.578 117.426,123.411 117.5,121.5C 118.167,121.167 118.833,120.833 119.5,120.5 Z"/>
  </g>
  <g>
    <path style="opacity:0.016" fill="#0b1b3d"
          d="M 122.5,116.5 C 122.833,116.5 123.167,116.5 123.5,116.5C 123.663,118.857 123.497,121.19 123,123.5C 122.617,124.056 122.117,124.389 121.5,124.5C 121.833,121.833 122.167,119.167 122.5,116.5 Z"/>
  </g>
  <g>
    <path style="opacity:0.971" fill="#132653"
          d="M 137.5,120.5 C 138.189,121.774 139.023,121.774 140,120.5C 141.417,121.078 142.25,122.078 142.5,123.5C 139.988,125.467 137.321,125.8 134.5,124.5C 133.566,123.432 133.232,122.099 133.5,120.5C 134.833,120.5 136.167,120.5 137.5,120.5 Z"/>
  </g>
  <g>
    <path style="opacity:0.988" fill="#142c5c"
          d="M 91.5,122.5 C 92.8968,124.822 92.2302,126.489 89.5,127.5C 89.6309,126.624 89.2975,125.957 88.5,125.5C 85.8345,126.738 83.1678,126.738 80.5,125.5C 82.4648,124.708 84.4648,124.041 86.5,123.5C 87.2975,123.043 87.6309,122.376 87.5,121.5C 89.5764,114.85 90.9097,115.183 91.5,122.5 Z"/>
  </g>
  <g>
    <path style="opacity:1" fill="#14213e"
          d="M 136.5,115.5 C 136.5,116.167 136.833,116.5 137.5,116.5C 137.5,116.833 137.5,117.167 137.5,117.5C 136.167,117.5 134.833,117.5 133.5,117.5C 133.5,118.5 133.5,119.5 133.5,120.5C 133.232,122.099 133.566,123.432 134.5,124.5C 133.167,125.933 131.667,127.267 130,128.5C 129.308,127.975 128.808,127.308 128.5,126.5C 131.725,125.168 132.725,123.001 131.5,120C 132.024,117.587 133.024,115.42 134.5,113.5C 135.182,114.243 135.849,114.909 136.5,115.5 Z"/>
  </g>
  <g>
    <path style="opacity:1" fill="#172c5f"
          d="M 110.5,121.5 C 110.821,123.048 111.821,123.715 113.5,123.5C 113.719,124.675 113.386,125.675 112.5,126.5C 110.997,125.948 109.331,125.948 107.5,126.5C 106.539,124.735 106.205,122.735 106.5,120.5C 107.151,119.909 107.818,119.243 108.5,118.5C 109.176,119.602 109.842,120.602 110.5,121.5 Z"/>
  </g>
  <g>
    <path style="opacity:0.949" fill="#0e1e3f"
          d="M 93.5,118.5 C 93.3205,120.954 93.9872,123.121 95.5,125C 95.3552,125.772 95.0219,126.439 94.5,127C 90.1024,128.724 85.7691,128.891 81.5,127.5C 84.1667,127.5 86.8333,127.5 89.5,127.5C 92.2302,126.489 92.8968,124.822 91.5,122.5C 92.1667,121.167 92.8333,119.833 93.5,118.5 Z"/>
  </g>
  <g>
    <path style="opacity:0.965" fill="#102245"
          d="M 111.5,117.5 C 111.201,122.26 113.201,123.594 117.5,121.5C 117.426,123.411 116.426,124.578 114.5,125C 115.905,126.269 117.571,126.769 119.5,126.5C 119.082,127.222 118.416,127.722 117.5,128C 114.518,128.498 111.518,128.665 108.5,128.5C 108.167,127.833 107.833,127.167 107.5,126.5C 109.331,125.948 110.997,125.948 112.5,126.5C 113.386,125.675 113.719,124.675 113.5,123.5C 111.821,123.715 110.821,123.048 110.5,121.5C 110.232,119.901 110.566,118.568 111.5,117.5 Z"/>
  </g>
</svg>
